<svg width="388" height="90" viewBox="0 0 388 90" fill="none" xmlns="http://www.w3.org/2000/svg">
<circle cx="44.7146" cy="45.2805" r="44.7146" fill="white"/>
<path fill-rule="evenodd" clip-rule="evenodd" d="M110.567 11.2521V-0.00488281H167.421V11.2521H145.475V77.8843H132.74V11.2521H110.567ZM170.521 27.171C174.463 22.2437 180.982 19.7801 190.079 19.7801C199.175 19.7801 205.656 22.2437 209.522 27.171C213.464 32.0983 215.435 39.4893 215.435 49.3439C215.435 59.1984 213.54 66.6273 209.75 71.6304C205.96 76.6335 199.403 79.135 190.079 79.135C180.755 79.135 174.198 76.6335 170.407 71.6304C166.617 66.6273 164.722 59.1984 164.722 49.3439C164.722 39.4893 166.655 32.0983 170.521 27.171ZM179.845 64.1257C181.589 67.1579 185 68.674 190.079 68.674C195.158 68.674 198.569 67.1579 200.312 64.1257C202.056 61.0936 202.927 56.1284 202.927 49.2302C202.927 42.3319 201.98 37.4426 200.085 34.562C198.266 31.6814 194.93 30.2411 190.079 30.2411C185.227 30.2411 181.854 31.6814 179.959 34.562C178.139 37.4426 177.23 42.3319 177.23 49.2302C177.23 56.1284 178.102 61.0936 179.845 64.1257ZM227.747 77.8843H240.141V54.6881L247.532 53.8921L261.404 77.8843H275.39L258.106 47.6383L274.48 21.0309H260.608L247.19 43.2037L240.141 43.8859V-0.0048642H227.747V77.8843ZM279.258 21.0309H291.425L303.478 67.3095H306.548L318.601 21.0309H330.881L312.555 89.9951H300.553L303.933 77.8843H294.154L279.258 21.0309ZM362.082 19.7801C352.986 19.7801 346.467 22.2437 342.525 27.171C338.659 32.0983 336.726 39.4893 336.726 49.3439C336.726 59.1984 338.621 66.6273 342.411 71.6304C346.201 76.6335 352.758 79.135 362.082 79.135C371.406 79.135 377.963 76.6335 381.754 71.6304C385.544 66.6273 387.439 59.1984 387.439 49.3439C387.439 39.4893 385.468 32.0983 381.526 27.171C377.66 22.2437 371.179 19.7801 362.082 19.7801ZM362.082 68.674C357.003 68.674 353.592 67.1579 351.849 64.1257C350.105 61.0936 349.233 56.1284 349.233 49.2302C349.233 42.3319 350.143 37.4426 351.962 34.562C353.857 31.6814 357.231 30.2411 362.082 30.2411C366.934 30.2411 370.269 31.6814 372.088 34.562C373.984 37.4426 374.931 42.3319 374.931 49.2302C374.931 56.1284 374.059 61.0936 372.316 64.1257C370.572 67.1579 367.161 68.674 362.082 68.674Z" fill="white"/>
</svg>
